<?xml version="1.0" encoding="UTF-8"?>
<svg id="Layer_1" data-name="Layer 1" xmlns="http://www.w3.org/2000/svg" viewBox="0 0 500 463.62">
  <defs>
    <style>
      .cls-1, .cls-2 {
        stroke-width: 0px;
      }

      .cls-2 {
        fill: #89e894;
      }
    </style>
  </defs>
  <rect class="cls-2" x="292.85" width="207.15" height="207.15"/>
  <rect class="cls-2" x=".88" y="256.47" width="207.15" height="207.15"/>
  <path class="cls-1" d="m0,207.15v-28.42h27.81V28.42H0V0h180.51C192.93,0,203.78,2.14,213.05,6.38s16.52,10.26,21.75,18.04c5.23,7.8,7.85,17.03,7.85,27.67v2.96c0,9.46-1.78,17.27-5.33,23.38s-7.84,10.84-12.87,14.21c-5.03,3.35-9.81,5.71-14.35,7.08v4.74c4.54,1.18,9.42,3.52,14.65,6.96,5.23,3.44,9.66,8.24,13.32,14.35,3.65,6.12,5.47,14.11,5.47,23.96v2.96c0,11.44-2.66,21.22-7.98,29.31-5.33,8.09-12.68,14.3-22.05,18.64-9.38,4.33-20.18,6.5-32.4,6.5H0Zm60.07-118.96h117.17c10.07,0,18.15-2.5,24.26-7.54s9.18-11.9,9.18-20.57v-2.96c0-8.67-3.01-15.53-9.02-20.57-6.02-5.03-14.16-7.54-24.42-7.54H60.07v59.17Zm0,89.97h117.17c10.66,0,19.04-2.58,25.15-7.71,6.12-5.13,9.18-12.23,9.18-21.29v-2.67c0-9.08-3.01-16.18-9.03-21.31s-14.45-7.68-25.3-7.68H60.07v60.66Z"/>
  <path class="cls-1" d="m287.83,463.62l-30.48-207.15h31.96l24.86,185.55h4.73l31.96-185.55h55.93l31.96,185.55h4.73l24.56-185.55h31.96l-30.48,207.15h-55.93l-32.55-188.2h-4.73l-32.26,188.2h-56.23Z"/>
</svg>