<?xml version="1.0" encoding="UTF-8"?>
<svg id="Layer_1" data-name="Layer 1" xmlns="http://www.w3.org/2000/svg" viewBox="0 0 500 176.82">
  <defs>
    <style>
      .cls-1 {
        fill: #fff;
      }

      .cls-1, .cls-2 {
        stroke-width: 0px;
      }

      .cls-2 {
        fill: #89e894;
      }
    </style>
  </defs>
  <rect class="cls-2" y="97.84" width="78.98" height="78.98"/>
  <polygon class="cls-2" points="259.46 0 180.48 0 180.48 78.98 259.46 78.98 338.44 78.98 338.44 0 259.46 0"/>
  <rect class="cls-2" x="421.02" width="78.98" height="78.98"/>
  <g>
    <path class="cls-1" d="m0,78.98v-10.83h10.6V10.83H0V0h40.05c4.74,0,8.87.82,12.41,2.43s6.3,3.91,8.29,6.88c1.99,2.97,2.99,6.49,2.99,10.55v1.13c0,3.61-.68,6.58-2.03,8.92s-2.99,4.13-4.91,5.42c-1.92,1.28-3.74,2.18-5.47,2.7v1.81c1.73.45,3.59,1.34,5.59,2.65,1.99,1.31,3.68,3.14,5.08,5.47,1.39,2.33,2.08,5.38,2.08,9.14v1.13c0,4.36-1.01,8.09-3.04,11.17-2.03,3.09-4.83,5.45-8.41,7.11-3.58,1.65-7.69,2.48-12.35,2.48H0Zm22.9-45.36h15.91c3.84,0,6.92-.95,9.25-2.87,2.33-1.92,3.5-4.54,3.5-7.84v-1.13c0-3.31-1.15-5.92-3.44-7.84-2.3-1.92-5.4-2.87-9.31-2.87h-15.91v22.56Zm0,34.3h15.91c4.06,0,7.26-.98,9.59-2.94,2.33-1.96,3.5-4.66,3.5-8.12v-1.02c0-3.46-1.15-6.17-3.44-8.13-2.3-1.96-5.51-2.93-9.65-2.93h-15.91v23.13Z"/>
    <path class="cls-1" d="m77.74,78.98V0h12.18v78.98h-12.18Z"/>
    <path class="cls-1" d="m125.23,78.98V11.06h-24.26V0h60.7v11.06h-24.26v67.92h-12.18Z"/>
  </g>
  <g>
    <path class="cls-1" d="m109.4,176.76l-11.62-78.98h12.18l9.48,70.74h1.8l12.18-70.74h21.32l12.18,70.74h1.8l9.37-70.74h12.18l-11.62,78.98h-21.32l-12.41-71.75h-1.8l-12.3,71.75h-21.44Z"/>
    <path class="cls-1" d="m202.37,176.76v-78.98h12.18v78.98h-12.18Z"/>
    <path class="cls-1" d="m228.21,176.76v-15.79l41.52-50.66v-1.58h-40.28v-10.94h52.8v15.8l-41.52,50.66v1.58h41.97v10.94h-54.49Z"/>
    <path class="cls-1" d="m290.26,176.76l22.56-78.98h21.44l22.45,78.98h-12.52l-5.19-18.62h-30.91l-5.19,18.62h-12.64Zm20.87-29.9h24.82l-11.5-41.52h-1.81l-11.5,41.52Z"/>
    <path class="cls-1" d="m367.43,176.76v-78.98h33.17c4.89,0,9.2.85,12.92,2.54s6.62,4.11,8.69,7.27c2.07,3.17,3.1,6.92,3.1,11.28v1.24c0,4.97-1.19,8.93-3.56,11.91-2.37,2.97-5.24,5.06-8.63,6.26v1.8c2.86.16,5.15,1.11,6.88,2.88,1.73,1.76,2.6,4.31,2.6,7.61v26.18h-12.3v-24.48c0-2.04-.53-3.65-1.58-4.86-1.06-1.2-2.75-1.8-5.08-1.8h-24.03v31.13h-12.18Zm12.18-42.2h19.63c4.36,0,7.75-1.1,10.15-3.32,2.41-2.22,3.61-5.25,3.61-9.08v-.91c0-3.83-1.18-6.86-3.55-9.08-2.37-2.21-5.78-3.32-10.21-3.32h-19.63v25.72Z"/>
    <path class="cls-1" d="m435.8,176.76v-10.83h10.6v-57.31h-10.6v-10.83h31.59c10.53,0,18.6,2.67,24.2,8.02,5.6,5.34,8.41,13.39,8.41,24.14v14.78c0,10.76-2.8,18.79-8.41,24.09-5.61,5.3-13.67,7.95-24.2,7.95h-31.59Zm22.9-11.05h8.8c6.84,0,11.92-1.74,15.23-5.19,3.31-3.46,4.96-8.61,4.96-15.46v-15.57c0-6.91-1.66-12.06-4.96-15.45-3.31-3.39-8.39-5.08-15.23-5.08h-8.8v56.75Z"/>
  </g>
</svg>